<svg xmlns="http://www.w3.org/2000/svg" xmlns:xlink="http://www.w3.org/1999/xlink" contentStyleType="text/css" height="243px" preserveAspectRatio="none" style="width:918px;height:243px;background:#FFFFFF;" version="1.1" viewBox="0 0 918 243" width="918px" zoomAndPan="magnify"><defs/><g><!--cluster Presentation Layer--><g id="cluster_Presentation Layer"><path d="M8.5,6.0137 L135.5479,6.0137 A3.75,3.75 0 0 1 138.0479,8.5137 L145.0479,30.6348 L347.5,30.6348 A2.5,2.5 0 0 1 350,33.1348 L350,106.5137 A2.5,2.5 0 0 1 347.5,109.0137 L8.5,109.0137 A2.5,2.5 0 0 1 6,106.5137 L6,8.5137 A2.5,2.5 0 0 1 8.5,6.0137 " fill="none" style="stroke:#000000;stroke-width:1.5;"/><line style="stroke:#000000;stroke-width:1.5;" x1="6" x2="145.0479" y1="30.6348" y2="30.6348"/><text fill="#000000" font-family="sans-serif" font-size="14" font-weight="bold" lengthAdjust="spacing" textLength="126.0479" x="10" y="23.1211">Presentation Layer</text></g><!--cluster Domain Layer--><g id="cluster_Domain Layer"><path d="M380.5,6.0137 L474.0859,6.0137 A3.75,3.75 0 0 1 476.5859,8.5137 L483.5859,30.6348 L677.5,30.6348 A2.5,2.5 0 0 1 680,33.1348 L680,106.5137 A2.5,2.5 0 0 1 677.5,109.0137 L380.5,109.0137 A2.5,2.5 0 0 1 378,106.5137 L378,8.5137 A2.5,2.5 0 0 1 380.5,6.0137 " fill="none" style="stroke:#000000;stroke-width:1.5;"/><line style="stroke:#000000;stroke-width:1.5;" x1="378" x2="483.5859" y1="30.6348" y2="30.6348"/><text fill="#000000" font-family="sans-serif" font-size="14" font-weight="bold" lengthAdjust="spacing" textLength="92.5859" x="382" y="23.1211">Domain Layer</text></g><!--cluster Data Layer--><g id="cluster_Data Layer"><path d="M548.5,133.0137 L621.0928,133.0137 A3.75,3.75 0 0 1 623.5928,135.5137 L630.5928,157.6348 L908.5,157.6348 A2.5,2.5 0 0 1 911,160.1348 L911,233.5137 A2.5,2.5 0 0 1 908.5,236.0137 L548.5,236.0137 A2.5,2.5 0 0 1 546,233.5137 L546,135.5137 A2.5,2.5 0 0 1 548.5,133.0137 " fill="none" style="stroke:#000000;stroke-width:1.5;"/><line style="stroke:#000000;stroke-width:1.5;" x1="546" x2="630.5928" y1="157.6348" y2="157.6348"/><text fill="#000000" font-family="sans-serif" font-size="14" font-weight="bold" lengthAdjust="spacing" textLength="71.5928" x="550" y="150.1211">Data Layer</text></g><!--entity UI Components--><g id="elem_UI Components"><rect fill="#F1F1F1" height="48.6211" rx="2.5" ry="2.5" style="stroke:#181818;stroke-width:0.5;" width="137.2686" x="22" y="43.5137"/><rect fill="#F1F1F1" height="10" style="stroke:#181818;stroke-width:0.5;" width="15" x="139.2686" y="48.5137"/><rect fill="#F1F1F1" height="2" style="stroke:#181818;stroke-width:0.5;" width="4" x="137.2686" y="50.5137"/><rect fill="#F1F1F1" height="2" style="stroke:#181818;stroke-width:0.5;" width="4" x="137.2686" y="54.5137"/><text fill="#000000" font-family="sans-serif" font-size="14" lengthAdjust="spacing" textLength="97.2686" x="37" y="78.6211">UI Components</text></g><!--entity ViewModels--><g id="elem_ViewModels"><rect fill="#F1F1F1" height="48.6211" rx="2.5" ry="2.5" style="stroke:#181818;stroke-width:0.5;" width="115.4756" x="219" y="43.5137"/><rect fill="#F1F1F1" height="10" style="stroke:#181818;stroke-width:0.5;" width="15" x="314.4756" y="48.5137"/><rect fill="#F1F1F1" height="2" style="stroke:#181818;stroke-width:0.5;" width="4" x="312.4756" y="50.5137"/><rect fill="#F1F1F1" height="2" style="stroke:#181818;stroke-width:0.5;" width="4" x="312.4756" y="54.5137"/><text fill="#000000" font-family="sans-serif" font-size="14" lengthAdjust="spacing" textLength="75.4756" x="234" y="78.6211">ViewModels</text></g><!--entity Use Cases--><g id="elem_Use Cases"><rect fill="#F1F1F1" height="48.6211" rx="2.5" ry="2.5" style="stroke:#181818;stroke-width:0.5;" width="108.4688" x="394" y="43.5137"/><rect fill="#F1F1F1" height="10" style="stroke:#181818;stroke-width:0.5;" width="15" x="482.4688" y="48.5137"/><rect fill="#F1F1F1" height="2" style="stroke:#181818;stroke-width:0.5;" width="4" x="480.4688" y="50.5137"/><rect fill="#F1F1F1" height="2" style="stroke:#181818;stroke-width:0.5;" width="4" x="480.4688" y="54.5137"/><text fill="#000000" font-family="sans-serif" font-size="14" lengthAdjust="spacing" textLength="68.4688" x="409" y="78.6211">Use Cases</text></g><!--entity Entities--><g id="elem_Entities"><rect fill="#F1F1F1" height="48.6211" rx="2.5" ry="2.5" style="stroke:#181818;stroke-width:0.5;" width="85.9102" x="578" y="43.5137"/><rect fill="#F1F1F1" height="10" style="stroke:#181818;stroke-width:0.5;" width="15" x="643.9102" y="48.5137"/><rect fill="#F1F1F1" height="2" style="stroke:#181818;stroke-width:0.5;" width="4" x="641.9102" y="50.5137"/><rect fill="#F1F1F1" height="2" style="stroke:#181818;stroke-width:0.5;" width="4" x="641.9102" y="54.5137"/><text fill="#000000" font-family="sans-serif" font-size="14" lengthAdjust="spacing" textLength="45.9102" x="593" y="78.6211">Entities</text></g><!--entity Repositories--><g id="elem_Repositories"><rect fill="#F1F1F1" height="48.6211" rx="2.5" ry="2.5" style="stroke:#181818;stroke-width:0.5;" width="117.8135" x="562" y="170.5137"/><rect fill="#F1F1F1" height="10" style="stroke:#181818;stroke-width:0.5;" width="15" x="659.8135" y="175.5137"/><rect fill="#F1F1F1" height="2" style="stroke:#181818;stroke-width:0.5;" width="4" x="657.8135" y="177.5137"/><rect fill="#F1F1F1" height="2" style="stroke:#181818;stroke-width:0.5;" width="4" x="657.8135" y="181.5137"/><text fill="#000000" font-family="sans-serif" font-size="14" lengthAdjust="spacing" textLength="77.8135" x="577" y="205.6211">Repositories</text></g><!--entity Local Data Source--><g id="elem_Local Data Source"><rect fill="#F1F1F1" height="48.6211" rx="2.5" ry="2.5" style="stroke:#181818;stroke-width:0.5;" width="155.1787" x="740" y="170.5137"/><rect fill="#F1F1F1" height="10" style="stroke:#181818;stroke-width:0.5;" width="15" x="875.1787" y="175.5137"/><rect fill="#F1F1F1" height="2" style="stroke:#181818;stroke-width:0.5;" width="4" x="873.1787" y="177.5137"/><rect fill="#F1F1F1" height="2" style="stroke:#181818;stroke-width:0.5;" width="4" x="873.1787" y="181.5137"/><text fill="#000000" font-family="sans-serif" font-size="14" lengthAdjust="spacing" textLength="115.1787" x="755" y="205.6211">Local Data Source</text></g><!--link UI Components to ViewModels--><g id="link_UI Components_ViewModels"><path d="M159.23,68.0137 C178.8,68.0137 193.95,68.0137 212.78,68.0137 " fill="none" id="UI Components-to-ViewModels" style="stroke:#181818;stroke-width:1.0;"/><polygon fill="#181818" points="218.78,68.0137,209.78,64.0137,213.78,68.0137,209.78,72.0137,218.78,68.0137" style="stroke:#181818;stroke-width:1.0;"/></g><!--link ViewModels to Use Cases--><g id="link_ViewModels_Use Cases"><path d="M334.41,68.0137 C353.65,68.0137 369.03,68.0137 387.96,68.0137 " fill="none" id="ViewModels-to-Use Cases" style="stroke:#181818;stroke-width:1.0;"/><polygon fill="#181818" points="393.96,68.0137,384.96,64.0137,388.96,68.0137,384.96,72.0137,393.96,68.0137" style="stroke:#181818;stroke-width:1.0;"/></g><!--link Use Cases to Entities--><g id="link_Use Cases_Entities"><path d="M502.17,68.0137 C526.58,68.0137 549.12,68.0137 571.99,68.0137 " fill="none" id="Use Cases-to-Entities" style="stroke:#181818;stroke-width:1.0;"/><polygon fill="#181818" points="577.99,68.0137,568.99,64.0137,572.99,68.0137,568.99,72.0137,577.99,68.0137" style="stroke:#181818;stroke-width:1.0;"/></g><!--link Use Cases to Repositories--><g id="link_Use Cases_Repositories"><path d="M482.38,92.8037 C512.6,115.2537 552.073,144.5665 582.183,166.9265 " fill="none" id="Use Cases-to-Repositories" style="stroke:#181818;stroke-width:1.0;"/><polygon fill="#181818" points="587,170.5037,582.1592,161.9266,582.9858,167.5227,577.3897,168.3493,587,170.5037" style="stroke:#181818;stroke-width:1.0;"/></g><!--link Repositories to Local Data Source--><g id="link_Repositories_Local Data Source"><path d="M680.09,195.0137 C698.9,195.0137 714.05,195.0137 733.98,195.0137 " fill="none" id="Repositories-to-Local Data Source" style="stroke:#181818;stroke-width:1.0;"/><polygon fill="#181818" points="739.98,195.0137,730.98,191.0137,734.98,195.0137,730.98,199.0137,739.98,195.0137" style="stroke:#181818;stroke-width:1.0;"/></g><!--SRC=[POv12i9034NtFKNelbTmKrq85KJHZRW8qrY3xQJCH4J4kzjsX7RQNNv-NdWrtHHKm75rLoZPaL4McxHe7bWHf7j7dgnYluK2t-HI-2G0bzCMScbQiLthh_tcpFJQIKbr5x_9-68j3V8CzWGvUWhWnYehqnn3nGWwK2kULHp_kK8CrZ3S7UNf30qFPcQGPQlORHf2Ez6PpA4RvHPLB1J7SB4q_040]--></g></svg>