<svg xmlns="http://www.w3.org/2000/svg" xmlns:xlink="http://www.w3.org/1999/xlink" contentStyleType="text/css" height="214px" preserveAspectRatio="none" style="width:198px;height:214px;background:#ADD8E6;" version="1.1" viewBox="0 0 198 214" width="198px" zoomAndPan="magnify"><defs/><g><rect fill="#ADD8E6" height="214" style="stroke:none;stroke-width:1.0;" width="198" x="0" y="0"/><rect fill="#EEEEEE" height="19.9609" rx="5" ry="5" style="stroke:#000000;stroke-width:2.5;" width="44" x="9.5" y="9.5"/><text fill="#A52A2A" font-family="sans-serif" font-size="12" lengthAdjust="spacing" textLength="23.6719" x="19.6641" y="24.4492">&#160;&#160;&#9716;&#160;&#160;</text><text fill="#000000" font-family="sans-serif" font-size="12" lengthAdjust="spacing" textLength="10.002" x="58" y="19.9492">&#160;&#160;&#160;</text><rect fill="#EEEEEE" height="19.9609" rx="5" ry="5" style="stroke:#000000;stroke-width:2.5;" width="44" x="72.502" y="9.5"/><text fill="#008000" font-family="sans-serif" font-size="12" lengthAdjust="spacing" textLength="22.9453" x="83.0293" y="24.4492">&#160;&#160;&#10004;&#160;&#160;</text><text fill="#000000" font-family="sans-serif" font-size="12" lengthAdjust="spacing" textLength="10.002" x="121.002" y="19.9492">&#160;&#160;&#160;</text><rect fill="#EEEEEE" height="19.9609" rx="5" ry="5" style="stroke:#000000;stroke-width:2.5;" width="44" x="135.5039" y="9.5"/><text fill="#000000" font-family="sans-serif" font-size="12" lengthAdjust="spacing" textLength="23.4492" x="145.7793" y="24.4492">&#160;&#160;&#9881;&#160;&#160;</text><line style="stroke:#000000;stroke-width:1.0;" x1="6" x2="57" y1="6" y2="6"/><line style="stroke:#000000;stroke-width:1.0;" x1="57" x2="69.002" y1="32.9609" y2="32.9609"/><line style="stroke:#000000;stroke-width:1.0;" x1="57" x2="69.002" y1="6" y2="6"/><line style="stroke:#000000;stroke-width:1.0;" x1="69.002" x2="120.002" y1="32.9609" y2="32.9609"/><line style="stroke:#000000;stroke-width:1.0;" x1="69.002" x2="120.002" y1="6" y2="6"/><line style="stroke:#000000;stroke-width:1.0;" x1="120.002" x2="132.0039" y1="32.9609" y2="32.9609"/><line style="stroke:#000000;stroke-width:1.0;" x1="120.002" x2="132.0039" y1="6" y2="6"/><line style="stroke:#000000;stroke-width:1.0;" x1="132.0039" x2="183.0039" y1="32.9609" y2="32.9609"/><line style="stroke:#000000;stroke-width:1.0;" x1="132.0039" x2="183.0039" y1="6" y2="6"/><line style="stroke:#000000;stroke-width:1.0;" x1="6" x2="57" y1="32.9609" y2="32.9609"/><line style="stroke:#000000;stroke-width:1.0;" x1="6" x2="6" y1="6" y2="32.9609"/><line style="stroke:#000000;stroke-width:1.0;" x1="183.0039" x2="183.0039" y1="6" y2="32.9609"/><text fill="#000000" font-family="sans-serif" font-size="12" lengthAdjust="spacing" textLength="42.6797" x="7" y="48.9102">. Task 1</text><text fill="#000000" font-family="sans-serif" font-size="12" lengthAdjust="spacing" textLength="114.0527" x="7" y="66.8711">.&#160;&#9500;&#9472;&#9472;&#9472;  &#160;Subtask 1.1</text><text fill="#000000" font-family="sans-serif" font-size="12" lengthAdjust="spacing" textLength="114.0527" x="7" y="84.832">.&#160;&#9492;&#9472;&#9472;&#9472;  &#160;Subtask 1.2</text><text fill="#000000" font-family="sans-serif" font-size="12" lengthAdjust="spacing" textLength="164.0684" x="7" y="102.793">.&#160;&#160;&#160;&#160;&#160;&#160;&#160;&#160;&#160;&#160;&#9500;&#9472;&#9472;&#9472;  &#160;Subtask 1.2.1&#160;&#160;&#160;</text><text fill="#000000" font-family="sans-serif" font-size="12" lengthAdjust="spacing" textLength="164.0684" x="7" y="120.7539">.&#160;&#160;&#160;&#160;&#160;&#160;&#160;&#160;&#160;&#160;&#9492;&#9472;&#9472;&#9472;  &#160;Subtask 1.2.2&#160;&#160;&#160;</text><text fill="#000000" font-family="sans-serif" font-size="12" lengthAdjust="spacing" textLength="42.6797" x="7" y="138.7148">. Task 2</text><text fill="#000000" font-family="sans-serif" font-size="12" lengthAdjust="spacing" textLength="42.6797" x="7" y="156.6758">. Task 3</text><text fill="#000000" font-family="sans-serif" font-size="12" lengthAdjust="spacing" textLength="42.6797" x="7" y="174.6367">. Task 4</text><line style="stroke:#000000;stroke-width:1.0;" x1="6" x2="172.0684" y1="34.9609" y2="34.9609"/><line style="stroke:#000000;stroke-width:1.0;" x1="6" x2="172.0684" y1="178.6484" y2="178.6484"/><line style="stroke:#000000;stroke-width:1.0;" x1="6" x2="6" y1="34.9609" y2="52.9219"/><line style="stroke:#000000;stroke-width:1.0;" x1="172.0684" x2="172.0684" y1="34.9609" y2="52.9219"/><line style="stroke:#000000;stroke-width:1.0;" x1="6" x2="6" y1="160.6875" y2="178.6484"/><line style="stroke:#000000;stroke-width:1.0;" x1="172.0684" x2="172.0684" y1="160.6875" y2="178.6484"/><line style="stroke:#000000;stroke-width:1.0;" x1="6" x2="6" y1="124.7656" y2="142.7266"/><line style="stroke:#000000;stroke-width:1.0;" x1="172.0684" x2="172.0684" y1="124.7656" y2="142.7266"/><line style="stroke:#000000;stroke-width:1.0;" x1="6" x2="6" y1="88.8438" y2="106.8047"/><line style="stroke:#000000;stroke-width:1.0;" x1="172.0684" x2="172.0684" y1="88.8438" y2="106.8047"/><line style="stroke:#000000;stroke-width:1.0;" x1="6" x2="6" y1="52.9219" y2="70.8828"/><line style="stroke:#000000;stroke-width:1.0;" x1="172.0684" x2="172.0684" y1="52.9219" y2="70.8828"/><line style="stroke:#000000;stroke-width:1.0;" x1="6" x2="6" y1="142.7266" y2="160.6875"/><line style="stroke:#000000;stroke-width:1.0;" x1="172.0684" x2="172.0684" y1="142.7266" y2="160.6875"/><line style="stroke:#000000;stroke-width:1.0;" x1="6" x2="6" y1="106.8047" y2="124.7656"/><line style="stroke:#000000;stroke-width:1.0;" x1="172.0684" x2="172.0684" y1="106.8047" y2="124.7656"/><line style="stroke:#000000;stroke-width:1.0;" x1="6" x2="6" y1="70.8828" y2="88.8438"/><line style="stroke:#000000;stroke-width:1.0;" x1="172.0684" x2="172.0684" y1="70.8828" y2="88.8438"/><rect fill="none" height="143.6875" style="stroke:#000000;stroke-width:1.0;" width="15" x="176.0684" y="34.9609"/><line style="stroke:#000000;stroke-width:1.0;" x1="176.0684" x2="191.0684" y1="46.9609" y2="46.9609"/><line style="stroke:#000000;stroke-width:1.0;" x1="176.0684" x2="191.0684" y1="166.6484" y2="166.6484"/><path d="M183.0684,38.9609 L186.0684,43.9609 L180.0684,43.9609 L183.0684,38.9609 " fill="#000000" style="stroke:#000000;stroke-width:1.0;"/><path d="M183.0684,175.6484 L186.0684,170.6484 L180.0684,170.6484 L183.0684,175.6484 " fill="#000000" style="stroke:#000000;stroke-width:1.0;"/><text fill="#000000" font-family="sans-serif" font-size="12" lengthAdjust="spacing" textLength="3.334" x="7" y="194.5977">&#160;</text><rect fill="#EEEEEE" height="19.9609" rx="5" ry="5" style="stroke:#000000;stroke-width:2.5;" width="44" x="14.834" y="184.1484"/><text fill="#0000FF" font-family="sans-serif" font-size="12" lengthAdjust="spacing" textLength="23.6719" x="24.998" y="199.0977">&#160;&#160;&#9654;&#160;&#160;</text><text fill="#000000" font-family="sans-serif" font-size="12" lengthAdjust="spacing" textLength="10.002" x="63.334" y="194.5977">&#160;&#160;&#160;</text><rect fill="#EEEEEE" height="19.9609" rx="5" ry="5" style="stroke:#000000;stroke-width:2.5;" width="44" x="77.8359" y="184.1484"/><text fill="#008000" font-family="sans-serif" font-size="12" lengthAdjust="spacing" textLength="20.3438" x="89.6641" y="199.0977">&#160;&#160;+&#160;&#160;</text><text fill="#000000" font-family="sans-serif" font-size="12" lengthAdjust="spacing" textLength="13.3359" x="126.3359" y="194.5977">&#160;&#160;&#160;&#160;</text><rect fill="#EEEEEE" height="19.9609" rx="5" ry="5" style="stroke:#000000;stroke-width:2.5;" width="44" x="144.1719" y="184.1484"/><text fill="#FF0000" font-family="sans-serif" font-size="12" lengthAdjust="spacing" textLength="23.1387" x="154.6025" y="199.0977">&#160;&#160;&#10007;&#160;&#160;</text><line style="stroke:#000000;stroke-width:1.0;" x1="6" x2="11.334" y1="180.6484" y2="180.6484"/><line style="stroke:#000000;stroke-width:1.0;" x1="11.334" x2="62.334" y1="207.6094" y2="207.6094"/><line style="stroke:#000000;stroke-width:1.0;" x1="11.334" x2="62.334" y1="180.6484" y2="180.6484"/><line style="stroke:#000000;stroke-width:1.0;" x1="62.334" x2="74.3359" y1="207.6094" y2="207.6094"/><line style="stroke:#000000;stroke-width:1.0;" x1="62.334" x2="74.3359" y1="180.6484" y2="180.6484"/><line style="stroke:#000000;stroke-width:1.0;" x1="74.3359" x2="125.3359" y1="207.6094" y2="207.6094"/><line style="stroke:#000000;stroke-width:1.0;" x1="74.3359" x2="125.3359" y1="180.6484" y2="180.6484"/><line style="stroke:#000000;stroke-width:1.0;" x1="125.3359" x2="140.6719" y1="207.6094" y2="207.6094"/><line style="stroke:#000000;stroke-width:1.0;" x1="125.3359" x2="140.6719" y1="180.6484" y2="180.6484"/><line style="stroke:#000000;stroke-width:1.0;" x1="140.6719" x2="191.6719" y1="207.6094" y2="207.6094"/><line style="stroke:#000000;stroke-width:1.0;" x1="140.6719" x2="191.6719" y1="180.6484" y2="180.6484"/><line style="stroke:#000000;stroke-width:1.0;" x1="6" x2="11.334" y1="207.6094" y2="207.6094"/><line style="stroke:#000000;stroke-width:1.0;" x1="6" x2="6" y1="180.6484" y2="207.6094"/><line style="stroke:#000000;stroke-width:1.0;" x1="191.6719" x2="191.6719" y1="180.6484" y2="207.6094"/><rect fill="none" height="143.6875" style="stroke:#000000;stroke-width:1.0;" width="15" x="176.0684" y="34.9609"/><line style="stroke:#000000;stroke-width:1.0;" x1="176.0684" x2="191.0684" y1="46.9609" y2="46.9609"/><line style="stroke:#000000;stroke-width:1.0;" x1="176.0684" x2="191.0684" y1="166.6484" y2="166.6484"/><path d="M183.0684,38.9609 L186.0684,43.9609 L180.0684,43.9609 L183.0684,38.9609 " fill="#000000" style="stroke:#000000;stroke-width:1.0;"/><path d="M183.0684,175.6484 L186.0684,170.6484 L180.0684,170.6484 L183.0684,175.6484 " fill="#000000" style="stroke:#000000;stroke-width:1.0;"/><!--SRC=[XPBTQi8m5CVlynJdKXaMxMIECeOu7UWi6wjwCpP8swmBrbJIr35Ks4F8PCEBFiJO0_HHV9Ab7twiGqm31_xvdVzfpadT5vWB7xi2-KFAnfZZ4JImDNIu5p3RyboFWqkT5s6w0K5JX42kwLCIulLmaJ2QoRrNTXc5KRXUViVX4MPnYCBPbd4u8HcpMkIPHFxwJEJ4VOvGLireRyifqCF-42exGMOjLkl5Uxe1ej08J950IWvR7C3KVUp_TzXVLIefSipWO6L5pHka5rJpmcbUgEQQj1b95CAku_7GqeP__1mToiaVOf_XnCx6jioOhFWSrGcpa-U3xbpCH5_lmeHmdteilbvPhIgrWe4566GCvPhSMkLSgzIWrUn1V5n41RtT0zyBk4N0fhxWr0o4p2-Y3fvWk0-Oe2EYmUsOi4xpPYD0YqqezzY8C84w0tq7d5LB3HfNvF9FOA2Z9dd6WIjaXkNPb3aQz7lNfNFKnSm9i2Ez2KDNyhqB_YRFZ5y0]--></g></svg>