<svg xmlns="http://www.w3.org/2000/svg" xmlns:xlink="http://www.w3.org/1999/xlink" contentStyleType="text/css" height="311px" preserveAspectRatio="none" style="width:425px;height:311px;background:#FFFFFF;" version="1.1" viewBox="0 0 425 311" width="425px" zoomAndPan="magnify"><defs/><g><!--class Task--><g id="elem_Task"><rect codeLine="2" fill="#F1F1F1" height="234.2109" id="Task" rx="2.5" ry="2.5" style="stroke:#181818;stroke-width:0.5;" width="245.3926" x="7" y="70"/><ellipse cx="110.2773" cy="86" fill="#ADD1B2" rx="11" ry="11" style="stroke:#181818;stroke-width:1.0;"/><path d="M113.043,81.875 Q113.1992,81.6563 113.3867,81.5469 Q113.5742,81.4375 113.793,81.4375 Q114.168,81.4375 114.4023,81.7031 Q114.6367,81.9531 114.6367,82.5625 L114.6367,84.0156 Q114.6367,84.625 114.4023,84.8906 Q114.168,85.1563 113.793,85.1563 Q113.4492,85.1563 113.2461,84.9531 Q113.043,84.7656 112.9336,84.25 Q112.8867,83.8906 112.6992,83.7031 Q112.3711,83.3281 111.7617,83.1094 Q111.1523,82.8906 110.5273,82.8906 Q109.7617,82.8906 109.1211,83.2188 Q108.4961,83.5469 107.9961,84.2969 Q107.5117,85.0469 107.5117,86.0781 L107.5117,87.1719 Q107.5117,88.4063 108.4023,89.2344 Q109.293,90.0469 110.8867,90.0469 Q111.8242,90.0469 112.4805,89.7969 Q112.8711,89.6406 113.293,89.2031 Q113.5586,88.9375 113.6992,88.8594 Q113.8555,88.7813 114.0586,88.7813 Q114.3867,88.7813 114.6367,89.0469 Q114.9023,89.2969 114.9023,89.6406 Q114.9023,89.9844 114.5586,90.3906 Q114.0586,90.9688 113.2617,91.2969 Q112.1836,91.75 110.8867,91.75 Q109.3711,91.75 108.168,91.125 Q107.1836,90.625 106.4961,89.5625 Q105.8086,88.4844 105.8086,87.2031 L105.8086,86.0469 Q105.8086,84.7188 106.418,83.5781 Q107.043,82.4219 108.1367,81.8125 Q109.2305,81.1875 110.4648,81.1875 Q111.1992,81.1875 111.8398,81.3594 Q112.4961,81.5156 113.043,81.875 Z " fill="#000000"/><text fill="#000000" font-family="sans-serif" font-size="14" lengthAdjust="spacing" textLength="30.3379" x="130.7773" y="91.7969">Task</text><line style="stroke:#181818;stroke-width:0.5;" x1="8" x2="251.3926" y1="102" y2="102"/><ellipse cx="18" cy="116.8105" fill="none" rx="3" ry="3" style="stroke:#038048;stroke-width:1.0;"/><text fill="#000000" font-family="sans-serif" font-size="14" lengthAdjust="spacing" textLength="62.2617" x="27" y="121.1074">id: Integer</text><ellipse cx="18" cy="135.4316" fill="none" rx="3" ry="3" style="stroke:#038048;stroke-width:1.0;"/><text fill="#000000" font-family="sans-serif" font-size="14" lengthAdjust="spacing" textLength="66.1377" x="27" y="139.7285">title: String</text><ellipse cx="18" cy="154.0527" fill="none" rx="3" ry="3" style="stroke:#038048;stroke-width:1.0;"/><text fill="#000000" font-family="sans-serif" font-size="14" lengthAdjust="spacing" textLength="94.1514" x="27" y="158.3496">startDate: Date</text><ellipse cx="18" cy="172.6738" fill="none" rx="3" ry="3" style="stroke:#038048;stroke-width:1.0;"/><text fill="#000000" font-family="sans-serif" font-size="14" lengthAdjust="spacing" textLength="219.3926" x="27" y="176.9707">estimatedTime: Duration.MINUTES</text><ellipse cx="18" cy="191.2949" fill="none" rx="3" ry="3" style="stroke:#038048;stroke-width:1.0;"/><text fill="#000000" font-family="sans-serif" font-size="14" lengthAdjust="spacing" textLength="157.9785" x="27" y="195.5918">dueDate: kotlinx.datetime</text><ellipse cx="18" cy="209.916" fill="none" rx="3" ry="3" style="stroke:#038048;stroke-width:1.0;"/><text fill="#000000" font-family="sans-serif" font-size="14" lengthAdjust="spacing" textLength="112.0547" x="27" y="214.2129">description: String</text><ellipse cx="18" cy="228.5371" fill="none" rx="3" ry="3" style="stroke:#038048;stroke-width:1.0;"/><text fill="#000000" font-family="sans-serif" font-size="14" lengthAdjust="spacing" textLength="143.1719" x="27" y="232.834">isDayOffTask: Boolean</text><ellipse cx="18" cy="247.1582" fill="none" rx="3" ry="3" style="stroke:#038048;stroke-width:1.0;"/><text fill="#000000" font-family="sans-serif" font-size="14" lengthAdjust="spacing" textLength="196.0957" x="27" y="251.4551">materialsRequired: List&lt;String&gt;</text><ellipse cx="18" cy="265.7793" fill="none" rx="3" ry="3" style="stroke:#038048;stroke-width:1.0;"/><text fill="#000000" font-family="sans-serif" font-size="14" lengthAdjust="spacing" textLength="123.6826" x="27" y="270.0762">priority: TaskPriority</text><ellipse cx="18" cy="284.4004" fill="none" rx="3" ry="3" style="stroke:#038048;stroke-width:1.0;"/><text fill="#000000" font-family="sans-serif" font-size="14" lengthAdjust="spacing" textLength="142.3857" x="27" y="288.6973">childTasks: List&lt;Task&gt;</text><line style="stroke:#181818;stroke-width:0.5;" x1="8" x2="251.3926" y1="296.2109" y2="296.2109"/></g><!--class TaskPriority--><g id="elem_TaskPriority"><rect codeLine="15" fill="#F1F1F1" height="141.1055" id="TaskPriority" rx="2.5" ry="2.5" style="stroke:#181818;stroke-width:0.5;" width="105.8965" x="313" y="116.5"/><ellipse cx="328" cy="132.5" fill="#EB937F" rx="11" ry="11" style="stroke:#181818;stroke-width:1.0;"/><path d="M326.8594,133.2969 L326.8594,135.7969 L331.1875,135.7969 L331.1875,134.875 Q331.1875,134.2656 331.4219,134 Q331.6719,133.7344 332.0469,133.7344 Q332.4219,133.7344 332.6563,134 Q332.8906,134.2656 332.8906,134.875 L332.8906,137.5 L324.8906,137.5 Q324.2656,137.5 324,137.2656 Q323.75,137.0313 323.75,136.6406 Q323.75,136.2656 324.0156,136.0313 Q324.2813,135.7969 324.8906,135.7969 L325.1563,135.7969 L325.1563,129.1406 L324.8906,129.1406 Q324.2656,129.1406 324,128.9063 Q323.75,128.6719 323.75,128.2813 Q323.75,127.9063 324,127.6719 Q324.2656,127.4375 324.8906,127.4375 L332.5156,127.4375 L332.5156,130.0313 Q332.5156,130.6406 332.2813,130.9063 Q332.0625,131.1563 331.6719,131.1563 Q331.2969,131.1563 331.0625,130.9063 Q330.8281,130.6406 330.8281,130.0313 L330.8281,129.1406 L326.8594,129.1406 L326.8594,131.5938 L328.3438,131.5938 Q328.3438,130.9375 328.4688,130.75 Q328.7344,130.3438 329.2031,130.3438 Q329.5781,130.3438 329.8125,130.6094 Q330.0469,130.8594 330.0469,131.4688 L330.0469,133.4375 Q330.0469,133.9844 329.9219,134.1719 Q329.6563,134.5625 329.2031,134.5625 Q328.7344,134.5625 328.4688,134.1563 Q328.3438,133.9688 328.3438,133.2969 L326.8594,133.2969 Z " fill="#000000"/><text fill="#000000" font-family="sans-serif" font-size="14" lengthAdjust="spacing" textLength="73.8965" x="342" y="138.2969">TaskPriority</text><line style="stroke:#181818;stroke-width:0.5;" x1="314" x2="417.8965" y1="148.5" y2="148.5"/><text fill="#000000" font-family="sans-serif" font-size="14" lengthAdjust="spacing" textLength="40.4482" x="319" y="167.6074">NONE</text><text fill="#000000" font-family="sans-serif" font-size="14" lengthAdjust="spacing" textLength="31.8896" x="319" y="186.2285">LOW</text><text fill="#000000" font-family="sans-serif" font-size="14" lengthAdjust="spacing" textLength="79.3379" x="319" y="204.8496">MODERATE</text><text fill="#000000" font-family="sans-serif" font-size="14" lengthAdjust="spacing" textLength="35" x="319" y="223.4707">HIGH</text><text fill="#000000" font-family="sans-serif" font-size="14" lengthAdjust="spacing" textLength="63.7861" x="319" y="242.0918">CRITICAL</text><line style="stroke:#181818;stroke-width:0.5;" x1="314" x2="417.8965" y1="249.6055" y2="249.6055"/></g><!--reverse link Task to Task--><g id="link_Task_Task"><path codeLine="23" d="M104.8351,57.9073 C108.3951,37.4273 115.25,35 129.5,35 C143.75,35 152.66,49.25 156.22,69.73 " fill="none" id="Task-backto-Task" style="stroke:#181818;stroke-width:1.0;"/><polygon fill="#181818" points="102.78,69.73,107.7485,64.5037,104.8351,57.9073,99.8667,63.1336,102.78,69.73" style="stroke:#181818;stroke-width:1.0;"/><text fill="#000000" font-family="sans-serif" font-size="13" lengthAdjust="spacing" textLength="48.4199" x="105.5" y="26.0283">contains</text><text fill="#000000" font-family="sans-serif" font-size="13" lengthAdjust="spacing" textLength="7.23" x="93.8388" y="58.7037">1</text><text fill="#000000" font-family="sans-serif" font-size="13" lengthAdjust="spacing" textLength="19.5127" x="138.327" y="58.7037">0..*</text></g><!--link Task to TaskPriority--><g id="link_Task_TaskPriority"><path codeLine="24" d="M252.21,187 C273.63,187 294.84,187 312.99,187 " fill="none" id="Task-TaskPriority" style="stroke:#181818;stroke-width:1.0;"/></g><!--SRC=[LL1DQuD04BtxAmQFAP7qAYMGHca4eyLOUbxSrGnPTzFT4HfA_tjtD8VqCXzltfilhNe2ik1mE1D8TAeZj2RgjF0UMk4ly1C1FA5CeJ2a1kKu9IIjKZYHGpCmu4auoWG5a2r3oXEE8POjZWnFJd3hv5XK7sr-OegSrAAvMD9elXCPig2QzLBvpk6LDO-Jq6VYLlSzxvR2gxLQ2SC5dkLGQD-ehoaS4ZOkqTFB8jqovUhGEgHREb_sVi-uqfrHImRzNSNnDlgD8cMcyHzzVaXLLtbmPVqPxB7EycRNCd0etWx1xPkYBVQxaXlCJuoVOrYjrn1lacGLBuzDeRE611g_S4BvSSuV]--></g></svg>