<svg xmlns="http://www.w3.org/2000/svg" xmlns:xlink="http://www.w3.org/1999/xlink" contentStyleType="text/css" height="861px" preserveAspectRatio="none" style="width:2084px;height:861px;background:#FFFFFF;" version="1.1" viewBox="0 0 2084 861" width="2084px" zoomAndPan="magnify"><defs/><g><!--cluster RecyclerView--><g id="cluster_RecyclerView"><path d="M1903.5,140.5 L1994.7822,140.5 A3.75,3.75 0 0 1 1997.2822,143 L2004.2822,165.1211 L2011.5,165.1211 A2.5,2.5 0 0 1 2014,167.6211 L2014,239 A2.5,2.5 0 0 1 2011.5,241.5 L1903.5,241.5 A2.5,2.5 0 0 1 1901,239 L1901,143 A2.5,2.5 0 0 1 1903.5,140.5 " fill="none" style="stroke:#000000;stroke-width:1.5;"/><line style="stroke:#000000;stroke-width:1.5;" x1="1901" x2="2004.2822" y1="165.1211" y2="165.1211"/><text fill="#000000" font-family="sans-serif" font-size="14" font-weight="bold" lengthAdjust="spacing" textLength="90.2822" x="1905" y="157.6074">RecyclerView</text></g><!--class Adapter--><g id="elem_Adapter"><rect fill="#F1F1F1" height="48" id="Adapter" rx="2.5" ry="2.5" style="stroke:#181818;stroke-width:0.5;" width="81.0342" x="1917" y="177.5"/><ellipse cx="1932" cy="193.5" fill="#ADD1B2" rx="11" ry="11" style="stroke:#181818;stroke-width:1.0;"/><path d="M1934.7656,189.375 Q1934.9219,189.1563 1935.1094,189.0469 Q1935.2969,188.9375 1935.5156,188.9375 Q1935.8906,188.9375 1936.125,189.2031 Q1936.3594,189.4531 1936.3594,190.0625 L1936.3594,191.5156 Q1936.3594,192.125 1936.125,192.3906 Q1935.8906,192.6563 1935.5156,192.6563 Q1935.1719,192.6563 1934.9688,192.4531 Q1934.7656,192.2656 1934.6563,191.75 Q1934.6094,191.3906 1934.4219,191.2031 Q1934.0938,190.8281 1933.4844,190.6094 Q1932.875,190.3906 1932.25,190.3906 Q1931.4844,190.3906 1930.8438,190.7188 Q1930.2188,191.0469 1929.7188,191.7969 Q1929.2344,192.5469 1929.2344,193.5781 L1929.2344,194.6719 Q1929.2344,195.9063 1930.125,196.7344 Q1931.0156,197.5469 1932.6094,197.5469 Q1933.5469,197.5469 1934.2031,197.2969 Q1934.5938,197.1406 1935.0156,196.7031 Q1935.2813,196.4375 1935.4219,196.3594 Q1935.5781,196.2813 1935.7813,196.2813 Q1936.1094,196.2813 1936.3594,196.5469 Q1936.625,196.7969 1936.625,197.1406 Q1936.625,197.4844 1936.2813,197.8906 Q1935.7813,198.4688 1934.9844,198.7969 Q1933.9063,199.25 1932.6094,199.25 Q1931.0938,199.25 1929.8906,198.625 Q1928.9063,198.125 1928.2188,197.0625 Q1927.5313,195.9844 1927.5313,194.7031 L1927.5313,193.5469 Q1927.5313,192.2188 1928.1406,191.0781 Q1928.7656,189.9219 1929.8594,189.3125 Q1930.9531,188.6875 1932.1875,188.6875 Q1932.9219,188.6875 1933.5625,188.8594 Q1934.2188,189.0156 1934.7656,189.375 Z " fill="#000000"/><text fill="#000000" font-family="sans-serif" font-size="14" lengthAdjust="spacing" textLength="49.0342" x="1946" y="199.2969">Adapter</text><line style="stroke:#181818;stroke-width:0.5;" x1="1918" x2="1997.0342" y1="209.5" y2="209.5"/><line style="stroke:#181818;stroke-width:0.5;" x1="1918" x2="1997.0342" y1="217.5" y2="217.5"/></g><!--class MainActivity--><g id="elem_MainActivity"><rect codeLine="3" fill="#F1F1F1" height="159.7266" id="MainActivity" rx="2.5" ry="2.5" style="stroke:#181818;stroke-width:0.5;" width="642.2598" x="7" y="586.5"/><ellipse cx="286.5386" cy="602.5" fill="#ADD1B2" rx="11" ry="11" style="stroke:#181818;stroke-width:1.0;"/><path d="M289.3042,598.375 Q289.4604,598.1563 289.6479,598.0469 Q289.8354,597.9375 290.0542,597.9375 Q290.4292,597.9375 290.6636,598.2031 Q290.8979,598.4531 290.8979,599.0625 L290.8979,600.5156 Q290.8979,601.125 290.6636,601.3906 Q290.4292,601.6563 290.0542,601.6563 Q289.7104,601.6563 289.5073,601.4531 Q289.3042,601.2656 289.1948,600.75 Q289.1479,600.3906 288.9604,600.2031 Q288.6323,599.8281 288.0229,599.6094 Q287.4136,599.3906 286.7886,599.3906 Q286.0229,599.3906 285.3823,599.7188 Q284.7573,600.0469 284.2573,600.7969 Q283.7729,601.5469 283.7729,602.5781 L283.7729,603.6719 Q283.7729,604.9063 284.6636,605.7344 Q285.5542,606.5469 287.1479,606.5469 Q288.0854,606.5469 288.7417,606.2969 Q289.1323,606.1406 289.5542,605.7031 Q289.8198,605.4375 289.9604,605.3594 Q290.1167,605.2813 290.3198,605.2813 Q290.6479,605.2813 290.8979,605.5469 Q291.1636,605.7969 291.1636,606.1406 Q291.1636,606.4844 290.8198,606.8906 Q290.3198,607.4688 289.5229,607.7969 Q288.4448,608.25 287.1479,608.25 Q285.6323,608.25 284.4292,607.625 Q283.4448,607.125 282.7573,606.0625 Q282.0698,604.9844 282.0698,603.7031 L282.0698,602.5469 Q282.0698,601.2188 282.6792,600.0781 Q283.3042,598.9219 284.3979,598.3125 Q285.4917,597.6875 286.7261,597.6875 Q287.4604,597.6875 288.1011,597.8594 Q288.7573,598.0156 289.3042,598.375 Z " fill="#000000"/><text fill="#000000" font-family="sans-serif" font-size="14" lengthAdjust="spacing" textLength="74.6826" x="307.0386" y="608.2969">MainActivity</text><line style="stroke:#181818;stroke-width:0.5;" x1="8" x2="648.2598" y1="618.5" y2="618.5"/><rect fill="none" height="6" style="stroke:#C82930;stroke-width:1.0;" width="6" x="15" y="630.3105"/><text fill="#000000" font-family="sans-serif" font-size="14" lengthAdjust="spacing" textLength="171.9307" x="27" y="637.6074">recyclerView: RecyclerView</text><rect fill="none" height="6" style="stroke:#C82930;stroke-width:1.0;" width="6" x="15" y="648.9316"/><text fill="#000000" font-family="sans-serif" font-size="14" lengthAdjust="spacing" textLength="140.8818" x="27" y="656.2285">adapter: PhotoAdapter</text><rect fill="none" height="6" style="stroke:#C82930;stroke-width:1.0;" width="6" x="15" y="667.5527"/><text fill="#000000" font-family="sans-serif" font-size="14" lengthAdjust="spacing" textLength="168.8408" x="27" y="674.8496">permissions: Array&lt;String&gt;</text><line style="stroke:#181818;stroke-width:0.5;" x1="8" x2="648.2598" y1="682.3633" y2="682.3633"/><ellipse cx="18" cy="697.1738" fill="#84BE84" rx="3" ry="3" style="stroke:#038048;stroke-width:1.0;"/><text fill="#000000" font-family="sans-serif" font-size="14" lengthAdjust="spacing" textLength="241.2607" x="27" y="701.4707">onCreate(savedInstanceState: Bundle)</text><ellipse cx="18" cy="715.7949" fill="#84BE84" rx="3" ry="3" style="stroke:#038048;stroke-width:1.0;"/><text fill="#000000" font-family="sans-serif" font-size="14" lengthAdjust="spacing" textLength="616.2598" x="27" y="720.0918">onRequestPermissionsResult(requestCode: Int, permissions: Array&lt;String&gt;, grantResults: IntArray)</text><rect fill="#F24D5C" height="6" style="stroke:#C82930;stroke-width:1.0;" width="6" x="15" y="731.416"/><text fill="#000000" font-family="sans-serif" font-size="14" lengthAdjust="spacing" textLength="79.3789" x="27" y="738.7129">loadPhotos()</text></g><!--class PhotoAdapter--><g id="elem_PhotoAdapter"><rect codeLine="12" fill="#F1F1F1" height="141.1055" id="PhotoAdapter" rx="2.5" ry="2.5" style="stroke:#181818;stroke-width:0.5;" width="450.8535" x="1244.5" y="7"/><ellipse cx="1422.8667" cy="23" fill="#ADD1B2" rx="11" ry="11" style="stroke:#181818;stroke-width:1.0;"/><path d="M1425.6323,18.875 Q1425.7886,18.6563 1425.9761,18.5469 Q1426.1636,18.4375 1426.3823,18.4375 Q1426.7573,18.4375 1426.9917,18.7031 Q1427.2261,18.9531 1427.2261,19.5625 L1427.2261,21.0156 Q1427.2261,21.625 1426.9917,21.8906 Q1426.7573,22.1563 1426.3823,22.1563 Q1426.0386,22.1563 1425.8354,21.9531 Q1425.6323,21.7656 1425.5229,21.25 Q1425.4761,20.8906 1425.2886,20.7031 Q1424.9604,20.3281 1424.3511,20.1094 Q1423.7417,19.8906 1423.1167,19.8906 Q1422.3511,19.8906 1421.7104,20.2188 Q1421.0854,20.5469 1420.5854,21.2969 Q1420.1011,22.0469 1420.1011,23.0781 L1420.1011,24.1719 Q1420.1011,25.4063 1420.9917,26.2344 Q1421.8823,27.0469 1423.4761,27.0469 Q1424.4136,27.0469 1425.0698,26.7969 Q1425.4604,26.6406 1425.8823,26.2031 Q1426.1479,25.9375 1426.2886,25.8594 Q1426.4448,25.7813 1426.6479,25.7813 Q1426.9761,25.7813 1427.2261,26.0469 Q1427.4917,26.2969 1427.4917,26.6406 Q1427.4917,26.9844 1427.1479,27.3906 Q1426.6479,27.9688 1425.8511,28.2969 Q1424.7729,28.75 1423.4761,28.75 Q1421.9604,28.75 1420.7573,28.125 Q1419.7729,27.625 1419.0854,26.5625 Q1418.3979,25.4844 1418.3979,24.2031 L1418.3979,23.0469 Q1418.3979,21.7188 1419.0073,20.5781 Q1419.6323,19.4219 1420.7261,18.8125 Q1421.8198,18.1875 1423.0542,18.1875 Q1423.7886,18.1875 1424.4292,18.3594 Q1425.0854,18.5156 1425.6323,18.875 Z " fill="#000000"/><text fill="#000000" font-family="sans-serif" font-size="14" lengthAdjust="spacing" textLength="85.6201" x="1443.3667" y="28.7969">PhotoAdapter</text><line style="stroke:#181818;stroke-width:0.5;" x1="1245.5" x2="1694.3535" y1="39" y2="39"/><rect fill="none" height="6" style="stroke:#C82930;stroke-width:1.0;" width="6" x="1252.5" y="50.8105"/><text fill="#000000" font-family="sans-serif" font-size="14" lengthAdjust="spacing" textLength="124.5234" x="1264.5" y="58.1074">photos: List&lt;String&gt;</text><ellipse cx="1255.5" cy="72.4316" fill="none" rx="3" ry="3" style="stroke:#038048;stroke-width:1.0;"/><text fill="#000000" font-family="sans-serif" font-size="14" lengthAdjust="spacing" textLength="107.3721" x="1264.5" y="76.7285">class ViewHolder</text><line style="stroke:#181818;stroke-width:0.5;" x1="1245.5" x2="1694.3535" y1="84.2422" y2="84.2422"/><ellipse cx="1255.5" cy="99.0527" fill="#84BE84" rx="3" ry="3" style="stroke:#038048;stroke-width:1.0;"/><text fill="#000000" font-family="sans-serif" font-size="14" lengthAdjust="spacing" textLength="424.8535" x="1264.5" y="103.3496">onCreateViewHolder(parent: ViewGroup, viewType: Int): ViewHolder</text><ellipse cx="1255.5" cy="117.6738" fill="#84BE84" rx="3" ry="3" style="stroke:#038048;stroke-width:1.0;"/><text fill="#000000" font-family="sans-serif" font-size="14" lengthAdjust="spacing" textLength="322.1641" x="1264.5" y="121.9707">onBindViewHolder(holder: ViewHolder, position: Int)</text><ellipse cx="1255.5" cy="136.2949" fill="#84BE84" rx="3" ry="3" style="stroke:#038048;stroke-width:1.0;"/><text fill="#000000" font-family="sans-serif" font-size="14" lengthAdjust="spacing" textLength="116.7168" x="1264.5" y="140.5918">getItemCount(): Int</text></g><!--class FullscreenImageActivity--><g id="elem_FullscreenImageActivity"><rect codeLine="20" fill="#F1F1F1" height="122.4844" id="FullscreenImageActivity" rx="2.5" ry="2.5" style="stroke:#181818;stroke-width:0.5;" width="364.4746" x="759" y="534.5"/><ellipse cx="863.0737" cy="550.5" fill="#ADD1B2" rx="11" ry="11" style="stroke:#181818;stroke-width:1.0;"/><path d="M865.8394,546.375 Q865.9956,546.1563 866.1831,546.0469 Q866.3706,545.9375 866.5894,545.9375 Q866.9644,545.9375 867.1987,546.2031 Q867.4331,546.4531 867.4331,547.0625 L867.4331,548.5156 Q867.4331,549.125 867.1987,549.3906 Q866.9644,549.6563 866.5894,549.6563 Q866.2456,549.6563 866.0425,549.4531 Q865.8394,549.2656 865.73,548.75 Q865.6831,548.3906 865.4956,548.2031 Q865.1675,547.8281 864.5581,547.6094 Q863.9487,547.3906 863.3237,547.3906 Q862.5581,547.3906 861.9175,547.7188 Q861.2925,548.0469 860.7925,548.7969 Q860.3081,549.5469 860.3081,550.5781 L860.3081,551.6719 Q860.3081,552.9063 861.1987,553.7344 Q862.0894,554.5469 863.6831,554.5469 Q864.6206,554.5469 865.2769,554.2969 Q865.6675,554.1406 866.0894,553.7031 Q866.355,553.4375 866.4956,553.3594 Q866.6519,553.2813 866.855,553.2813 Q867.1831,553.2813 867.4331,553.5469 Q867.6987,553.7969 867.6987,554.1406 Q867.6987,554.4844 867.355,554.8906 Q866.855,555.4688 866.0581,555.7969 Q864.98,556.25 863.6831,556.25 Q862.1675,556.25 860.9644,555.625 Q859.98,555.125 859.2925,554.0625 Q858.605,552.9844 858.605,551.7031 L858.605,550.5469 Q858.605,549.2188 859.2144,548.0781 Q859.8394,546.9219 860.9331,546.3125 Q862.0269,545.6875 863.2612,545.6875 Q863.9956,545.6875 864.6362,545.8594 Q865.2925,546.0156 865.8394,546.375 Z " fill="#000000"/><text fill="#000000" font-family="sans-serif" font-size="14" lengthAdjust="spacing" textLength="147.8271" x="883.5737" y="556.2969">FullscreenImageActivity</text><line style="stroke:#181818;stroke-width:0.5;" x1="760" x2="1122.4746" y1="566.5" y2="566.5"/><rect fill="none" height="6" style="stroke:#C82930;stroke-width:1.0;" width="6" x="767" y="578.3105"/><text fill="#000000" font-family="sans-serif" font-size="14" lengthAdjust="spacing" textLength="338.4746" x="779" y="585.6074">viewPagerWrapper: ReverseSwipeViewPagerWrapper</text><rect fill="none" height="6" style="stroke:#C82930;stroke-width:1.0;" width="6" x="767" y="596.9316"/><text fill="#000000" font-family="sans-serif" font-size="14" lengthAdjust="spacing" textLength="157.9307" x="779" y="604.2285">EXTRA_PHOTOS: String</text><rect fill="none" height="6" style="stroke:#C82930;stroke-width:1.0;" width="6" x="767" y="615.5527"/><text fill="#000000" font-family="sans-serif" font-size="14" lengthAdjust="spacing" textLength="165.71" x="779" y="622.8496">EXTRA_POSITION: String</text><line style="stroke:#181818;stroke-width:0.5;" x1="760" x2="1122.4746" y1="630.3633" y2="630.3633"/><ellipse cx="770" cy="645.1738" fill="#84BE84" rx="3" ry="3" style="stroke:#038048;stroke-width:1.0;"/><text fill="#000000" font-family="sans-serif" font-size="14" lengthAdjust="spacing" textLength="241.2607" x="779" y="649.4707">onCreate(savedInstanceState: Bundle)</text></g><!--class FullscreenImageAdapter--><g id="elem_FullscreenImageAdapter"><rect codeLine="27" fill="#F1F1F1" height="141.1055" id="FullscreenImageAdapter" rx="2.5" ry="2.5" style="stroke:#181818;stroke-width:0.5;" width="489.7637" x="1225" y="245"/><ellipse cx="1389.3701" cy="261" fill="#ADD1B2" rx="11" ry="11" style="stroke:#181818;stroke-width:1.0;"/><path d="M1392.1357,256.875 Q1392.292,256.6563 1392.4795,256.5469 Q1392.667,256.4375 1392.8857,256.4375 Q1393.2607,256.4375 1393.4951,256.7031 Q1393.7295,256.9531 1393.7295,257.5625 L1393.7295,259.0156 Q1393.7295,259.625 1393.4951,259.8906 Q1393.2607,260.1563 1392.8857,260.1563 Q1392.542,260.1563 1392.3389,259.9531 Q1392.1357,259.7656 1392.0264,259.25 Q1391.9795,258.8906 1391.792,258.7031 Q1391.4639,258.3281 1390.8545,258.1094 Q1390.2451,257.8906 1389.6201,257.8906 Q1388.8545,257.8906 1388.2139,258.2188 Q1387.5889,258.5469 1387.0889,259.2969 Q1386.6045,260.0469 1386.6045,261.0781 L1386.6045,262.1719 Q1386.6045,263.4063 1387.4951,264.2344 Q1388.3857,265.0469 1389.9795,265.0469 Q1390.917,265.0469 1391.5732,264.7969 Q1391.9639,264.6406 1392.3857,264.2031 Q1392.6514,263.9375 1392.792,263.8594 Q1392.9482,263.7813 1393.1514,263.7813 Q1393.4795,263.7813 1393.7295,264.0469 Q1393.9951,264.2969 1393.9951,264.6406 Q1393.9951,264.9844 1393.6514,265.3906 Q1393.1514,265.9688 1392.3545,266.2969 Q1391.2764,266.75 1389.9795,266.75 Q1388.4639,266.75 1387.2607,266.125 Q1386.2764,265.625 1385.5889,264.5625 Q1384.9014,263.4844 1384.9014,262.2031 L1384.9014,261.0469 Q1384.9014,259.7188 1385.5107,258.5781 Q1386.1357,257.4219 1387.2295,256.8125 Q1388.3232,256.1875 1389.5576,256.1875 Q1390.292,256.1875 1390.9326,256.3594 Q1391.5889,256.5156 1392.1357,256.875 Z " fill="#000000"/><text fill="#000000" font-family="sans-serif" font-size="14" lengthAdjust="spacing" textLength="152.5234" x="1409.8701" y="266.7969">FullscreenImageAdapter</text><line style="stroke:#181818;stroke-width:0.5;" x1="1226" x2="1713.7637" y1="277" y2="277"/><rect fill="none" height="6" style="stroke:#C82930;stroke-width:1.0;" width="6" x="1233" y="288.8105"/><text fill="#000000" font-family="sans-serif" font-size="14" lengthAdjust="spacing" textLength="124.5234" x="1245" y="296.1074">photos: List&lt;String&gt;</text><ellipse cx="1236" cy="310.4316" fill="none" rx="3" ry="3" style="stroke:#038048;stroke-width:1.0;"/><text fill="#000000" font-family="sans-serif" font-size="14" lengthAdjust="spacing" textLength="146.2822" x="1245" y="314.7285">class ImageViewHolder</text><line style="stroke:#181818;stroke-width:0.5;" x1="1226" x2="1713.7637" y1="322.2422" y2="322.2422"/><ellipse cx="1236" cy="337.0527" fill="#84BE84" rx="3" ry="3" style="stroke:#038048;stroke-width:1.0;"/><text fill="#000000" font-family="sans-serif" font-size="14" lengthAdjust="spacing" textLength="463.7637" x="1245" y="341.3496">onCreateViewHolder(parent: ViewGroup, viewType: Int): ImageViewHolder</text><ellipse cx="1236" cy="355.6738" fill="#84BE84" rx="3" ry="3" style="stroke:#038048;stroke-width:1.0;"/><text fill="#000000" font-family="sans-serif" font-size="14" lengthAdjust="spacing" textLength="361.0742" x="1245" y="359.9707">onBindViewHolder(holder: ImageViewHolder, position: Int)</text><ellipse cx="1236" cy="374.2949" fill="#84BE84" rx="3" ry="3" style="stroke:#038048;stroke-width:1.0;"/><text fill="#000000" font-family="sans-serif" font-size="14" lengthAdjust="spacing" textLength="116.7168" x="1245" y="378.5918">getItemCount(): Int</text></g><!--class ReverseSwipeViewPagerWrapper--><g id="elem_ReverseSwipeViewPagerWrapper"><rect codeLine="35" fill="#F1F1F1" height="103.8633" id="ReverseSwipeViewPagerWrapper" rx="2.5" ry="2.5" style="stroke:#181818;stroke-width:0.5;" width="432.9502" x="1253.5" y="483.5"/><ellipse cx="1359.9014" cy="499.5" fill="#ADD1B2" rx="11" ry="11" style="stroke:#181818;stroke-width:1.0;"/><path d="M1362.667,495.375 Q1362.8232,495.1563 1363.0107,495.0469 Q1363.1982,494.9375 1363.417,494.9375 Q1363.792,494.9375 1364.0264,495.2031 Q1364.2607,495.4531 1364.2607,496.0625 L1364.2607,497.5156 Q1364.2607,498.125 1364.0264,498.3906 Q1363.792,498.6563 1363.417,498.6563 Q1363.0732,498.6563 1362.8701,498.4531 Q1362.667,498.2656 1362.5576,497.75 Q1362.5107,497.3906 1362.3232,497.2031 Q1361.9951,496.8281 1361.3857,496.6094 Q1360.7764,496.3906 1360.1514,496.3906 Q1359.3857,496.3906 1358.7451,496.7188 Q1358.1201,497.0469 1357.6201,497.7969 Q1357.1357,498.5469 1357.1357,499.5781 L1357.1357,500.6719 Q1357.1357,501.9063 1358.0264,502.7344 Q1358.917,503.5469 1360.5107,503.5469 Q1361.4482,503.5469 1362.1045,503.2969 Q1362.4951,503.1406 1362.917,502.7031 Q1363.1826,502.4375 1363.3232,502.3594 Q1363.4795,502.2813 1363.6826,502.2813 Q1364.0107,502.2813 1364.2607,502.5469 Q1364.5264,502.7969 1364.5264,503.1406 Q1364.5264,503.4844 1364.1826,503.8906 Q1363.6826,504.4688 1362.8857,504.7969 Q1361.8076,505.25 1360.5107,505.25 Q1358.9951,505.25 1357.792,504.625 Q1356.8076,504.125 1356.1201,503.0625 Q1355.4326,501.9844 1355.4326,500.7031 L1355.4326,499.5469 Q1355.4326,498.2188 1356.042,497.0781 Q1356.667,495.9219 1357.7607,495.3125 Q1358.8545,494.6875 1360.0889,494.6875 Q1360.8232,494.6875 1361.4639,494.8594 Q1362.1201,495.0156 1362.667,495.375 Z " fill="#000000"/><text fill="#000000" font-family="sans-serif" font-size="14" lengthAdjust="spacing" textLength="211.6475" x="1380.4014" y="505.2969">ReverseSwipeViewPagerWrapper</text><line style="stroke:#181818;stroke-width:0.5;" x1="1254.5" x2="1685.4502" y1="515.5" y2="515.5"/><rect fill="none" height="6" style="stroke:#C82930;stroke-width:1.0;" width="6" x="1261.5" y="527.3105"/><text fill="#000000" font-family="sans-serif" font-size="14" lengthAdjust="spacing" textLength="156.4199" x="1273.5" y="534.6074">viewPager2: ViewPager2</text><line style="stroke:#181818;stroke-width:0.5;" x1="1254.5" x2="1685.4502" y1="542.1211" y2="542.1211"/><ellipse cx="1264.5" cy="556.9316" fill="#84BE84" rx="3" ry="3" style="stroke:#038048;stroke-width:1.0;"/><text fill="#000000" font-family="sans-serif" font-size="14" lengthAdjust="spacing" textLength="406.9502" x="1273.5" y="561.2285">constructor(context: Context, attrs: AttributeSet?, defStyleAttr: Int)</text><rect fill="#F24D5C" height="6" style="stroke:#C82930;stroke-width:1.0;" width="6" x="1261.5" y="572.5527"/><text fill="#000000" font-family="sans-serif" font-size="14" lengthAdjust="spacing" textLength="146.2549" x="1273.5" y="579.8496">reverseScrollDirection()</text></g><!--class PhotoContainerLayout--><g id="elem_PhotoContainerLayout"><rect codeLine="41" fill="#F1F1F1" height="85.2422" id="PhotoContainerLayout" rx="2.5" ry="2.5" style="stroke:#181818;stroke-width:0.5;" width="432.9502" x="1253.5" y="769"/><ellipse cx="1396.0635" cy="785" fill="#ADD1B2" rx="11" ry="11" style="stroke:#181818;stroke-width:1.0;"/><path d="M1398.8291,780.875 Q1398.9854,780.6563 1399.1729,780.5469 Q1399.3604,780.4375 1399.5791,780.4375 Q1399.9541,780.4375 1400.1885,780.7031 Q1400.4229,780.9531 1400.4229,781.5625 L1400.4229,783.0156 Q1400.4229,783.625 1400.1885,783.8906 Q1399.9541,784.1563 1399.5791,784.1563 Q1399.2354,784.1563 1399.0322,783.9531 Q1398.8291,783.7656 1398.7197,783.25 Q1398.6729,782.8906 1398.4854,782.7031 Q1398.1572,782.3281 1397.5479,782.1094 Q1396.9385,781.8906 1396.3135,781.8906 Q1395.5479,781.8906 1394.9072,782.2188 Q1394.2822,782.5469 1393.7822,783.2969 Q1393.2979,784.0469 1393.2979,785.0781 L1393.2979,786.1719 Q1393.2979,787.4063 1394.1885,788.2344 Q1395.0791,789.0469 1396.6729,789.0469 Q1397.6104,789.0469 1398.2666,788.7969 Q1398.6572,788.6406 1399.0791,788.2031 Q1399.3447,787.9375 1399.4854,787.8594 Q1399.6416,787.7813 1399.8447,787.7813 Q1400.1729,787.7813 1400.4229,788.0469 Q1400.6885,788.2969 1400.6885,788.6406 Q1400.6885,788.9844 1400.3447,789.3906 Q1399.8447,789.9688 1399.0479,790.2969 Q1397.9697,790.75 1396.6729,790.75 Q1395.1572,790.75 1393.9541,790.125 Q1392.9697,789.625 1392.2822,788.5625 Q1391.5947,787.4844 1391.5947,786.2031 L1391.5947,785.0469 Q1391.5947,783.7188 1392.2041,782.5781 Q1392.8291,781.4219 1393.9229,780.8125 Q1395.0166,780.1875 1396.251,780.1875 Q1396.9854,780.1875 1397.626,780.3594 Q1398.2822,780.5156 1398.8291,780.875 Z " fill="#000000"/><text fill="#000000" font-family="sans-serif" font-size="14" lengthAdjust="spacing" textLength="139.3232" x="1416.5635" y="790.7969">PhotoContainerLayout</text><line style="stroke:#181818;stroke-width:0.5;" x1="1254.5" x2="1685.4502" y1="801" y2="801"/><line style="stroke:#181818;stroke-width:0.5;" x1="1254.5" x2="1685.4502" y1="809" y2="809"/><ellipse cx="1264.5" cy="823.8105" fill="#84BE84" rx="3" ry="3" style="stroke:#038048;stroke-width:1.0;"/><text fill="#000000" font-family="sans-serif" font-size="14" lengthAdjust="spacing" textLength="406.9502" x="1273.5" y="828.1074">constructor(context: Context, attrs: AttributeSet?, defStyleAttr: Int)</text><ellipse cx="1264.5" cy="842.4316" fill="#84BE84" rx="3" ry="3" style="stroke:#038048;stroke-width:1.0;"/><text fill="#000000" font-family="sans-serif" font-size="14" lengthAdjust="spacing" textLength="147.0479" x="1273.5" y="846.7285">performClick(): Boolean</text></g><!--class AppCompatActivity--><g id="elem_AppCompatActivity"><rect fill="#F1F1F1" height="48" id="AppCompatActivity" rx="2.5" ry="2.5" style="stroke:#181818;stroke-width:0.5;" width="150.2686" x="1395" y="685.5"/><ellipse cx="1410" cy="701.5" fill="#ADD1B2" rx="11" ry="11" style="stroke:#181818;stroke-width:1.0;"/><path d="M1412.7656,697.375 Q1412.9219,697.1563 1413.1094,697.0469 Q1413.2969,696.9375 1413.5156,696.9375 Q1413.8906,696.9375 1414.125,697.2031 Q1414.3594,697.4531 1414.3594,698.0625 L1414.3594,699.5156 Q1414.3594,700.125 1414.125,700.3906 Q1413.8906,700.6563 1413.5156,700.6563 Q1413.1719,700.6563 1412.9688,700.4531 Q1412.7656,700.2656 1412.6563,699.75 Q1412.6094,699.3906 1412.4219,699.2031 Q1412.0938,698.8281 1411.4844,698.6094 Q1410.875,698.3906 1410.25,698.3906 Q1409.4844,698.3906 1408.8438,698.7188 Q1408.2188,699.0469 1407.7188,699.7969 Q1407.2344,700.5469 1407.2344,701.5781 L1407.2344,702.6719 Q1407.2344,703.9063 1408.125,704.7344 Q1409.0156,705.5469 1410.6094,705.5469 Q1411.5469,705.5469 1412.2031,705.2969 Q1412.5938,705.1406 1413.0156,704.7031 Q1413.2813,704.4375 1413.4219,704.3594 Q1413.5781,704.2813 1413.7813,704.2813 Q1414.1094,704.2813 1414.3594,704.5469 Q1414.625,704.7969 1414.625,705.1406 Q1414.625,705.4844 1414.2813,705.8906 Q1413.7813,706.4688 1412.9844,706.7969 Q1411.9063,707.25 1410.6094,707.25 Q1409.0938,707.25 1407.8906,706.625 Q1406.9063,706.125 1406.2188,705.0625 Q1405.5313,703.9844 1405.5313,702.7031 L1405.5313,701.5469 Q1405.5313,700.2188 1406.1406,699.0781 Q1406.7656,697.9219 1407.8594,697.3125 Q1408.9531,696.6875 1410.1875,696.6875 Q1410.9219,696.6875 1411.5625,696.8594 Q1412.2188,697.0156 1412.7656,697.375 Z " fill="#000000"/><text fill="#000000" font-family="sans-serif" font-size="14" lengthAdjust="spacing" textLength="118.2686" x="1424" y="707.2969">AppCompatActivity</text><line style="stroke:#181818;stroke-width:0.5;" x1="1396" x2="1544.2686" y1="717.5" y2="717.5"/><line style="stroke:#181818;stroke-width:0.5;" x1="1396" x2="1544.2686" y1="725.5" y2="725.5"/></g><!--class FrameLayout--><g id="elem_FrameLayout"><rect fill="#F1F1F1" height="48" id="FrameLayout" rx="2.5" ry="2.5" style="stroke:#181818;stroke-width:0.5;" width="114.4824" x="1900.5" y="727.5"/><ellipse cx="1915.5" cy="743.5" fill="#ADD1B2" rx="11" ry="11" style="stroke:#181818;stroke-width:1.0;"/><path d="M1918.2656,739.375 Q1918.4219,739.1563 1918.6094,739.0469 Q1918.7969,738.9375 1919.0156,738.9375 Q1919.3906,738.9375 1919.625,739.2031 Q1919.8594,739.4531 1919.8594,740.0625 L1919.8594,741.5156 Q1919.8594,742.125 1919.625,742.3906 Q1919.3906,742.6563 1919.0156,742.6563 Q1918.6719,742.6563 1918.4688,742.4531 Q1918.2656,742.2656 1918.1563,741.75 Q1918.1094,741.3906 1917.9219,741.2031 Q1917.5938,740.8281 1916.9844,740.6094 Q1916.375,740.3906 1915.75,740.3906 Q1914.9844,740.3906 1914.3438,740.7188 Q1913.7188,741.0469 1913.2188,741.7969 Q1912.7344,742.5469 1912.7344,743.5781 L1912.7344,744.6719 Q1912.7344,745.9063 1913.625,746.7344 Q1914.5156,747.5469 1916.1094,747.5469 Q1917.0469,747.5469 1917.7031,747.2969 Q1918.0938,747.1406 1918.5156,746.7031 Q1918.7813,746.4375 1918.9219,746.3594 Q1919.0781,746.2813 1919.2813,746.2813 Q1919.6094,746.2813 1919.8594,746.5469 Q1920.125,746.7969 1920.125,747.1406 Q1920.125,747.4844 1919.7813,747.8906 Q1919.2813,748.4688 1918.4844,748.7969 Q1917.4063,749.25 1916.1094,749.25 Q1914.5938,749.25 1913.3906,748.625 Q1912.4063,748.125 1911.7188,747.0625 Q1911.0313,745.9844 1911.0313,744.7031 L1911.0313,743.5469 Q1911.0313,742.2188 1911.6406,741.0781 Q1912.2656,739.9219 1913.3594,739.3125 Q1914.4531,738.6875 1915.6875,738.6875 Q1916.4219,738.6875 1917.0625,738.8594 Q1917.7188,739.0156 1918.2656,739.375 Z " fill="#000000"/><text fill="#000000" font-family="sans-serif" font-size="14" lengthAdjust="spacing" textLength="82.4824" x="1929.5" y="749.2969">FrameLayout</text><line style="stroke:#181818;stroke-width:0.5;" x1="1901.5" x2="2013.9824" y1="759.5" y2="759.5"/><line style="stroke:#181818;stroke-width:0.5;" x1="1901.5" x2="2013.9824" y1="767.5" y2="767.5"/></g><!--class ViewPager2--><g id="elem_ViewPager2"><rect fill="#F1F1F1" height="48" id="ViewPager2" rx="2.5" ry="2.5" style="stroke:#181818;stroke-width:0.5;" width="107.4893" x="1904" y="548.5"/><ellipse cx="1919" cy="564.5" fill="#ADD1B2" rx="11" ry="11" style="stroke:#181818;stroke-width:1.0;"/><path d="M1921.7656,560.375 Q1921.9219,560.1563 1922.1094,560.0469 Q1922.2969,559.9375 1922.5156,559.9375 Q1922.8906,559.9375 1923.125,560.2031 Q1923.3594,560.4531 1923.3594,561.0625 L1923.3594,562.5156 Q1923.3594,563.125 1923.125,563.3906 Q1922.8906,563.6563 1922.5156,563.6563 Q1922.1719,563.6563 1921.9688,563.4531 Q1921.7656,563.2656 1921.6563,562.75 Q1921.6094,562.3906 1921.4219,562.2031 Q1921.0938,561.8281 1920.4844,561.6094 Q1919.875,561.3906 1919.25,561.3906 Q1918.4844,561.3906 1917.8438,561.7188 Q1917.2188,562.0469 1916.7188,562.7969 Q1916.2344,563.5469 1916.2344,564.5781 L1916.2344,565.6719 Q1916.2344,566.9063 1917.125,567.7344 Q1918.0156,568.5469 1919.6094,568.5469 Q1920.5469,568.5469 1921.2031,568.2969 Q1921.5938,568.1406 1922.0156,567.7031 Q1922.2813,567.4375 1922.4219,567.3594 Q1922.5781,567.2813 1922.7813,567.2813 Q1923.1094,567.2813 1923.3594,567.5469 Q1923.625,567.7969 1923.625,568.1406 Q1923.625,568.4844 1923.2813,568.8906 Q1922.7813,569.4688 1921.9844,569.7969 Q1920.9063,570.25 1919.6094,570.25 Q1918.0938,570.25 1916.8906,569.625 Q1915.9063,569.125 1915.2188,568.0625 Q1914.5313,566.9844 1914.5313,565.7031 L1914.5313,564.5469 Q1914.5313,563.2188 1915.1406,562.0781 Q1915.7656,560.9219 1916.8594,560.3125 Q1917.9531,559.6875 1919.1875,559.6875 Q1919.9219,559.6875 1920.5625,559.8594 Q1921.2188,560.0156 1921.7656,560.375 Z " fill="#000000"/><text fill="#000000" font-family="sans-serif" font-size="14" lengthAdjust="spacing" textLength="75.4893" x="1933" y="570.2969">ViewPager2</text><line style="stroke:#181818;stroke-width:0.5;" x1="1905" x2="2010.4893" y1="580.5" y2="580.5"/><line style="stroke:#181818;stroke-width:0.5;" x1="1905" x2="2010.4893" y1="588.5" y2="588.5"/></g><g id="elem_GMN24"><path d="M862,763 L862,807.582 L1019.811,807.582 L1019.811,773 L1009.811,763 L862,763 " fill="#FEFFDD" style="stroke:#181818;stroke-width:0.5;"/><path d="M1009.811,763 L1009.811,773 L1019.811,773 L1009.811,763 " fill="#FEFFDD" style="stroke:#181818;stroke-width:1.0;"/><text fill="#000000" font-family="sans-serif" font-size="13" lengthAdjust="spacing" textLength="136.811" x="868" y="782.0283">"Uses activity_main.xml</text><text fill="#000000" font-family="sans-serif" font-size="13" lengthAdjust="spacing" textLength="110.0874" x="868" y="799.3193">with RecyclerView"</text></g><g id="elem_GMN27"><path d="M1884,55 L1884,73.5 L1695.63,77.5 L1884,81.5 L1884,99.582 A0,0 0 0 0 1884,99.582 L2030.9946,99.582 A0,0 0 0 0 2030.9946,99.582 L2030.9946,65 L2020.9946,55 L1884,55 A0,0 0 0 0 1884,55 " fill="#FEFFDD" style="stroke:#181818;stroke-width:0.5;"/><path d="M2020.9946,55 L2020.9946,65 L2030.9946,65 L2020.9946,55 " fill="#FEFFDD" style="stroke:#181818;stroke-width:0.5;"/><text fill="#000000" font-family="sans-serif" font-size="13" lengthAdjust="spacing" textLength="125.9946" x="1890" y="74.0283">"Uses item_photo.xml</text><text fill="#000000" font-family="sans-serif" font-size="13" lengthAdjust="spacing" textLength="86.2646" x="1890" y="91.3193">for thumbnails"</text></g><g id="elem_GMN30"><path d="M1353.5,623 L1353.5,623.5 L1123.36,609.61 L1353.5,631.5 L1353.5,650.291 A0,0 0 0 0 1353.5,650.291 L1586.0229,650.291 A0,0 0 0 0 1586.0229,650.291 L1586.0229,633 L1576.0229,623 L1353.5,623 A0,0 0 0 0 1353.5,623 " fill="#FEFFDD" style="stroke:#181818;stroke-width:0.5;"/><path d="M1576.0229,623 L1576.0229,633 L1586.0229,633 L1576.0229,623 " fill="#FEFFDD" style="stroke:#181818;stroke-width:0.5;"/><text fill="#000000" font-family="sans-serif" font-size="13" lengthAdjust="spacing" textLength="211.5229" x="1359.5" y="642.0283">"Uses activity_fullscreen_image.xml"</text></g><g id="elem_GMN33"><path d="M1849,302 L1849,311.5 L1715.17,315.5 L1849,319.5 L1849,329.291 A0,0 0 0 0 1849,329.291 L2066.3521,329.291 A0,0 0 0 0 2066.3521,329.291 L2066.3521,312 L2056.3521,302 L1849,302 A0,0 0 0 0 1849,302 " fill="#FEFFDD" style="stroke:#181818;stroke-width:0.5;"/><path d="M2056.3521,302 L2056.3521,312 L2066.3521,312 L2056.3521,302 " fill="#FEFFDD" style="stroke:#181818;stroke-width:0.5;"/><text fill="#000000" font-family="sans-serif" font-size="13" lengthAdjust="spacing" textLength="196.3521" x="1855" y="321.0283">"Uses item_fullscreen_image.xml"</text></g><g id="elem_GMN36"><path d="M1838,486 L1838,504.3 L1686.77,519.5 L1838,512.3 L1838,513.291 A0,0 0 0 0 1838,513.291 L2077.042,513.291 A0,0 0 0 0 2077.042,513.291 L2077.042,496 L2067.042,486 L1838,486 A0,0 0 0 0 1838,486 " fill="#FEFFDD" style="stroke:#181818;stroke-width:0.5;"/><path d="M2067.042,486 L2067.042,496 L2077.042,496 L2067.042,486 " fill="#FEFFDD" style="stroke:#181818;stroke-width:0.5;"/><text fill="#000000" font-family="sans-serif" font-size="13" lengthAdjust="spacing" textLength="218.042" x="1844" y="505.0283">"Uses layout_reverse_viewpager.xml"</text></g><g id="elem_GMN39"><path d="M224,782 L224,809.291 A0,0 0 0 0 224,809.291 L431.9956,809.291 A0,0 0 0 0 431.9956,809.291 L431.9956,792 L421.9956,782 L332,782 L328,746.74 L324,782 L224,782 A0,0 0 0 0 224,782 " fill="#FEFFDD" style="stroke:#181818;stroke-width:0.5;"/><path d="M421.9956,782 L421.9956,792 L431.9956,792 L421.9956,782 " fill="#FEFFDD" style="stroke:#181818;stroke-width:0.5;"/><text fill="#000000" font-family="sans-serif" font-size="13" lengthAdjust="spacing" textLength="186.9956" x="230" y="801.0283">"Loads photos from MediaStore"</text></g><g id="elem_GMN42"><path d="M1379,183 L1379,210.291 A0,0 0 0 0 1379,210.291 L1560.9766,210.291 A0,0 0 0 0 1560.9766,210.291 L1560.9766,193 L1550.9766,183 L1474,183 L1470,148.08 L1466,183 L1379,183 A0,0 0 0 0 1379,183 " fill="#FEFFDD" style="stroke:#181818;stroke-width:0.5;"/><path d="M1550.9766,183 L1550.9766,193 L1560.9766,193 L1550.9766,183 " fill="#FEFFDD" style="stroke:#181818;stroke-width:0.5;"/><text fill="#000000" font-family="sans-serif" font-size="13" lengthAdjust="spacing" textLength="160.9766" x="1385" y="202.0283">"Displays photo thumbnails"</text></g><g id="elem_GMN45"><path d="M1379.5,421 L1379.5,448.291 A0,0 0 0 0 1379.5,448.291 L1560.7466,448.291 A0,0 0 0 0 1560.7466,448.291 L1560.7466,431 L1550.7466,421 L1474,421 L1470,386.08 L1466,421 L1379.5,421 A0,0 0 0 0 1379.5,421 " fill="#FEFFDD" style="stroke:#181818;stroke-width:0.5;"/><path d="M1550.7466,421 L1550.7466,431 L1560.7466,431 L1550.7466,421 " fill="#FEFFDD" style="stroke:#181818;stroke-width:0.5;"/><text fill="#000000" font-family="sans-serif" font-size="13" lengthAdjust="spacing" textLength="160.2466" x="1385.5" y="440.0283">"Displays fullscreen photos"</text></g><!--link MainActivity to AppCompatActivity--><g id="link_MainActivity_AppCompatActivity"><path codeLine="55" d="M649.21,678.58 C905.73,688.25 1228.4128,700.4209 1376.7328,706.0209 " fill="none" id="MainActivity-to-AppCompatActivity" style="stroke:#181818;stroke-width:1.0;"/><polygon fill="none" points="1394.72,706.7,1376.9592,700.0251,1376.5064,712.0166,1394.72,706.7" style="stroke:#181818;stroke-width:1.0;"/></g><!--link FullscreenImageActivity to AppCompatActivity--><g id="link_FullscreenImageActivity_AppCompatActivity"><path codeLine="56" d="M1123.05,643.81 C1156.82,652.18 1191.9,660.45 1225,667.5 C1281.65,679.56 1328.4938,687.7305 1376.9938,695.4505 " fill="none" id="FullscreenImageActivity-to-AppCompatActivity" style="stroke:#181818;stroke-width:1.0;"/><polygon fill="none" points="1394.77,698.28,1377.937,689.5251,1376.0506,701.3759,1394.77,698.28" style="stroke:#181818;stroke-width:1.0;"/></g><!--link PhotoAdapter to Adapter--><g id="link_PhotoAdapter_Adapter"><path codeLine="57" d="M1695.63,134.87 C1780.28,156.49 1850.4494,174.4175 1899.5294,186.9475 " fill="none" id="PhotoAdapter-to-Adapter" style="stroke:#181818;stroke-width:1.0;"/><polygon fill="none" points="1916.97,191.4,1901.0136,181.1339,1898.0452,192.761,1916.97,191.4" style="stroke:#181818;stroke-width:1.0;"/></g><!--link FullscreenImageAdapter to Adapter--><g id="link_FullscreenImageAdapter_Adapter"><path codeLine="58" d="M1715.17,258.17 C1793.33,239.81 1853.7665,225.6243 1899.1265,214.9743 " fill="none" id="FullscreenImageAdapter-to-Adapter" style="stroke:#181818;stroke-width:1.0;"/><polygon fill="none" points="1916.65,210.86,1897.7551,209.1331,1900.498,220.8155,1916.65,210.86" style="stroke:#181818;stroke-width:1.0;"/></g><!--link ReverseSwipeViewPagerWrapper to FrameLayout--><g id="link_ReverseSwipeViewPagerWrapper_FrameLayout"><path codeLine="59" d="M1669.34,587.56 C1684.97,593.12 1700.36,599.11 1715,605.5 C1793.8,639.9 1863.3261,685.4102 1908.5261,717.1302 " fill="none" id="ReverseSwipeViewPagerWrapper-to-FrameLayout" style="stroke:#181818;stroke-width:1.0;"/><polygon fill="none" points="1923.26,727.47,1911.9727,712.2189,1905.0795,722.0415,1923.26,727.47" style="stroke:#181818;stroke-width:1.0;"/></g><!--link PhotoContainerLayout to FrameLayout--><g id="link_PhotoContainerLayout_FrameLayout"><path codeLine="60" d="M1686.77,784.83 C1765.28,775.13 1829.736,767.1684 1882.476,760.6484 " fill="none" id="PhotoContainerLayout-to-FrameLayout" style="stroke:#181818;stroke-width:1.0;"/><polygon fill="none" points="1900.34,758.44,1881.7398,754.6938,1883.2121,766.6031,1900.34,758.44" style="stroke:#181818;stroke-width:1.0;"/></g><!--reverse link MainActivity to PhotoAdapter--><g id="link_MainActivity_PhotoAdapter"><path codeLine="63" d="M466.6971,580.1263 C637.3971,474.9763 941.45,294.85 1225,165.5 C1238.01,159.57 1251.54,153.75 1265.27,148.11 " fill="none" id="MainActivity-backto-PhotoAdapter" style="stroke:#181818;stroke-width:1.0;"/><polygon fill="none" points="456.48,586.42,463.6865,586.6789,466.6971,580.1263,459.4907,579.8675,456.48,586.42" style="stroke:#181818;stroke-width:1.0;"/><polygon fill="#000000" points="929.3977,207.7664,920.0438,209.4853,922.8406,214.6552,929.3977,207.7664" style="stroke:#000000;stroke-width:1.0;"/><text fill="#000000" font-family="sans-serif" font-size="13" lengthAdjust="spacing" textLength="27.46" x="934" y="215.5283">uses</text></g><!--reverse link FullscreenImageActivity to ReverseSwipeViewPagerWrapper--><g id="link_FullscreenImageActivity_ReverseSwipeViewPagerWrapper"><path codeLine="64" d="M1135.2831,573.4935 C1177.1231,568.7335 1210.1,564.98 1253.23,560.07 " fill="none" id="FullscreenImageActivity-backto-ReverseSwipeViewPagerWrapper" style="stroke:#181818;stroke-width:1.0;"/><polygon fill="none" points="1123.36,574.85,1129.7737,578.1461,1135.2831,573.4935,1128.8694,570.1974,1123.36,574.85" style="stroke:#181818;stroke-width:1.0;"/><polygon fill="#000000" points="1162.9679,556.5801,1153.6485,554.6829,1154.3132,560.523,1162.9679,556.5801" style="stroke:#000000;stroke-width:1.0;"/><text fill="#000000" font-family="sans-serif" font-size="13" lengthAdjust="spacing" textLength="27.46" x="1167" y="562.5283">uses</text></g><!--reverse link FullscreenImageActivity to FullscreenImageAdapter--><g id="link_FullscreenImageActivity_FullscreenImageAdapter"><path codeLine="65" d="M1133.781,540.8093 C1160.431,527.4093 1174.91,515.86 1195,494.5 C1224.17,463.48 1195.31,434.03 1225,403.5 C1231.04,397.29 1237.56,391.51 1244.44,386.14 " fill="none" id="FullscreenImageActivity-backto-FullscreenImageAdapter" style="stroke:#181818;stroke-width:1.0;"/><polygon fill="none" points="1123.06,546.2,1130.2174,547.0783,1133.781,540.8093,1126.6236,539.931,1123.06,546.2" style="stroke:#181818;stroke-width:1.0;"/><polygon fill="#000000" points="1160.9093,481.0791,1153.2561,486.7252,1158.0365,490.1454,1160.9093,481.0791" style="stroke:#000000;stroke-width:1.0;"/><text fill="#000000" font-family="sans-serif" font-size="13" lengthAdjust="spacing" textLength="27.46" x="1167" y="490.5283">uses</text></g><!--reverse link ReverseSwipeViewPagerWrapper to ViewPager2--><g id="link_ReverseSwipeViewPagerWrapper_ViewPager2"><path codeLine="66" d="M1698.7353,552.852 C1779.0253,558.972 1851.32,564.48 1903.86,568.49 " fill="none" id="ReverseSwipeViewPagerWrapper-backto-ViewPager2" style="stroke:#181818;stroke-width:1.0;"/><polygon fill="none" points="1686.77,551.94,1692.4486,556.3844,1698.7353,552.852,1693.0567,548.4076,1686.77,551.94" style="stroke:#181818;stroke-width:1.0;"/><polygon fill="#000000" points="1754.9855,547.5256,1746.19,543.9076,1745.7432,549.7684,1754.9855,547.5256" style="stroke:#000000;stroke-width:1.0;"/><text fill="#000000" font-family="sans-serif" font-size="13" lengthAdjust="spacing" textLength="48.4199" x="1759" y="552.5283">contains</text></g><!--link MainActivity to FullscreenImageActivity--><g id="link_MainActivity_FullscreenImageActivity"><path codeLine="69" d="M649.26,629.28 C686.9,624.91 718.2801,621.2629 753.0301,617.2229 " fill="none" id="MainActivity-to-FullscreenImageActivity" style="stroke:#181818;stroke-width:1.0;stroke-dasharray:7.0,7.0;"/><polygon fill="#181818" points="758.99,616.53,749.5883,613.5961,754.0235,617.1074,750.5121,621.5426,758.99,616.53" style="stroke:#181818;stroke-width:1.0;"/><polygon fill="#000000" points="688.9666,609.5684,679.6428,607.6931,680.3211,613.5317,688.9666,609.5684" style="stroke:#000000;stroke-width:1.0;"/><text fill="#000000" font-family="sans-serif" font-size="13" lengthAdjust="spacing" textLength="35.4199" x="693" y="615.5283">opens</text></g><!--link MainActivity to GMN24--><g id="link_MainActivity_GMN24"><path d="M649.42,729.74 C659.39,731.69 669.27,733.61 679,735.5 C740.37,747.43 809.89,760.74 861.75,770.62 " fill="none" id="MainActivity-GMN24" style="stroke:#181818;stroke-width:1.0;stroke-dasharray:7.0,7.0;"/></g><!--SRC=[jLPBRzf04BxxLwou00fmwD6gg0X96gGa84mVXqfeOm-mwdhNtHr3KDl_tdqOC0ucg6fFc7by-yqtEsDpM211IHHRhf0aJ46CJ8gWIOQSQaqIM331h4a7iRCyKYO69cZDS4j-1eHqYKdQnXpKPmQRa4nB_voR9ZH3K26Ph2JAWV_dF1ceb6bjqKCoK8fktqUec5ZsZVkAI35KG15QcguX6GcDLCGGeJ65v3eN2OTs4JY57pbed1m0fw1pZYtb7KEPc9oHmCwPGpjagQX0dwbTkFEt7LakQU8gqArsy3iev2ZNLCYHkQ2GF32D9-knojnBde1gPLI1m91OqqSbywn3rkPnjiqytRPt-UW2v9g9f0InSZ_bE5EZrAvf7iFbBG572EbGvW9RRUTmTbz6wP1zQNSvvpfM06AKqYLKccvfJenPVL4qooo1AQn1QOWsB7CbbhqkvVRhR3gOJ-x7it4K4gzCsJ6EHhFH-Adakl0Er5B-dtrn9rpQd4hmNtIeUjo-vdEoLtlrpbVadpsu6GDKUOnIjSmpmekfUkWVEeGYAZibveSzvmWHu8UENGeHRZbOyvw_NGEUIAmavpUxLV9gM2ousI6W7kXMvkWe_aCULtR05rAbGyxYxrR7QoavK65fDCdjYxaGWd8o48cIB347fvaKfjawQ7gMWomR6YF5tOtVEOusM_CmE8MSXULEqHHyRQSIUxi5UCfNwg_XEX8hKCnTU2CkfsuDhrYcWwCbtEt-wfyWNJU-DU57Yyp5d6HTCs7r2MUlfqih2tRoXhoAigydspO_GkUqaTtkyOeEIQv1atwjF3RZBEUB46faskUUFS427EwLIOgz83RHbFv4rspf2YOBBZV71VTw_Th57HAPmGwbqFPOEo4HYcy1kJX-rOUaySbofuLXdXflxoNbtyI6uUge-OqAKAK37eYPNJTtEzcZc9abkChJPq4PrrM8-fegj1Rxm3cpaHRyBR1Jp2x1UUEUU3JkX9uNst5kTt5cupoWwSGDHUexwT2V9Q9CJ-d_OBv0TF4Q8mjbWXuXOJGoEnCQrUIgvZTCPuPAaVzQwKDclJfxZ8Cu1Pr6y0S0]--></g></svg>